<svg width="48" height="48" viewBox="0 0 48 48" fill="none" xmlns="http://www.w3.org/2000/svg">
<circle cx="24" cy="24" r="24" fill="#19A9FA"/>
<path d="M24.7727 19.5909C24.7727 17.0544 22.7183 15 20.1818 15C17.6453 15 15.5909 17.0544 15.5909 19.5909C15.5909 22.1274 17.6453 24.1818 20.1818 24.1818C22.7183 24.1818 24.7727 22.1274 24.7727 19.5909ZM22.4773 19.5909C22.4773 20.8534 21.4443 21.8864 20.1818 21.8864C18.9193 21.8864 17.8864 20.8534 17.8864 19.5909C17.8864 18.3284 18.9193 17.2955 20.1818 17.2955C21.4443 17.2955 22.4773 18.3284 22.4773 19.5909ZM11 31.0682V31.3636C11 32.4682 11.8954 33.3636 13 33.3636H27.3636C28.4682 33.3636 29.3636 32.4682 29.3636 31.3636V31.0682C29.3636 28.0152 23.2463 26.4773 20.1818 26.4773C17.1174 26.4773 11 28.0152 11 31.0682ZM15.9367 31.0682C14.611 31.0682 14.2416 30.1511 15.4814 29.6819C16.8119 29.1784 18.5597 28.7727 20.1818 28.7727C21.7795 28.7727 23.5001 29.1661 24.8236 29.6603C26.0827 30.1304 25.7098 31.0682 24.3658 31.0682H15.9367ZM31.6591 27.625C32.293 27.625 32.8068 27.1111 32.8068 26.4773V25.9034C32.8068 24.9526 33.5776 24.1818 34.5284 24.1818H35.1023C35.7361 24.1818 36.25 23.668 36.25 23.0341C36.25 22.4002 35.7361 21.8864 35.1023 21.8864H34.5284C33.5776 21.8864 32.8068 21.1156 32.8068 20.1648V19.5909C32.8068 18.957 32.293 18.4432 31.6591 18.4432C31.0252 18.4432 30.5114 18.957 30.5114 19.5909V20.1648C30.5114 21.1156 29.7406 21.8864 28.7898 21.8864H28.2159C27.582 21.8864 27.0682 22.4002 27.0682 23.0341C27.0682 23.668 27.582 24.1818 28.2159 24.1818H28.7898C29.7406 24.1818 30.5114 24.9526 30.5114 25.9034V26.4773C30.5114 27.1111 31.0252 27.625 31.6591 27.625Z" fill="white"/>
</svg>
