<svg width="246" height="62" viewBox="0 0 246 62" fill="none" xmlns="http://www.w3.org/2000/svg">
<path fill-rule="evenodd" clip-rule="evenodd" d="M17.0477 48.3902H0V0H17.1886C22.0258 0 26.1899 0.96875 29.6808 2.90625C33.1718 4.828 35.8565 7.59248 37.7351 11.1997C39.6293 14.8069 40.5764 19.123 40.5764 24.1479C40.5764 29.1885 39.6293 33.5203 37.7351 37.1433C35.8565 40.7663 33.1561 43.5465 29.6339 45.484C26.1273 47.4215 21.9319 48.3902 17.0477 48.3902ZM31.7397 33.2683L18.5148 10.6459L5.28995 33.2683L18.5148 28.3504L31.7397 33.2683Z" fill="#19A9FA"/>
<path fill-rule="evenodd" clip-rule="evenodd" d="M64.2165 49.0991C60.569 49.0991 57.4147 48.3194 54.7534 46.7599C52.1078 45.1847 50.0649 42.9952 48.6247 40.1913C47.1845 37.3717 46.4644 34.1032 46.4644 30.3857C46.4644 26.6367 47.1845 23.3603 48.6247 20.5564C50.0649 17.7368 52.1078 15.5473 54.7534 13.9878C57.4147 12.4126 60.569 11.625 64.2165 11.625C67.864 11.625 71.0106 12.4126 73.6562 13.9878C76.3174 15.5473 78.3682 17.7368 79.8084 20.5564C81.2486 23.3603 81.9687 26.6367 81.9687 30.3857C81.9687 34.1032 81.2486 37.3717 79.8084 40.1913C78.3682 42.9952 76.3174 45.1847 73.6562 46.7599C71.0106 48.3194 67.864 49.0991 64.2165 49.0991ZM64.2635 41.3018C65.9229 41.3018 67.3083 40.8293 68.4198 39.8841C69.5312 38.9233 70.3687 37.6159 70.9323 35.9619C71.5115 34.3079 71.8011 32.4256 71.8011 30.3148C71.8011 28.204 71.5115 26.3216 70.9323 24.6677C70.3687 23.0137 69.5312 21.7063 68.4198 20.7454C67.3083 19.7846 65.9229 19.3041 64.2635 19.3041C62.5885 19.3041 61.1796 19.7846 60.0368 20.7454C58.9097 21.7063 58.0565 23.0137 57.4773 24.6677C56.9137 26.3216 56.632 28.204 56.632 30.3148C56.632 32.4256 56.9137 34.3079 57.4773 35.9619C58.0565 37.6159 58.9097 38.9233 60.0368 39.8841C61.1796 40.8293 62.5885 41.3018 64.2635 41.3018Z" fill="#19A9FA"/>
<path d="M107.658 12.0976V19.6585H100.871V37.2378C100.871 38.1672 101.012 38.8918 101.294 39.4116C101.576 39.9157 101.967 40.2701 102.468 40.4748C102.985 40.6796 103.58 40.782 104.253 40.782C104.722 40.782 105.192 40.7426 105.662 40.6639C106.131 40.5694 106.491 40.4985 106.742 40.4512L108.315 47.9413C107.814 48.0988 107.11 48.28 106.202 48.4848C105.294 48.7053 104.19 48.8392 102.891 48.8864C100.48 48.9809 98.3667 48.658 96.5508 47.9177C94.7505 47.1773 93.3495 46.0274 92.3476 44.468C91.3457 42.9085 90.8526 40.9395 90.8682 38.561V19.6585H85.9371V12.0976H90.8682V3.40244H100.871V12.0976H107.658Z" fill="#19A9FA"/>
<path fill-rule="evenodd" clip-rule="evenodd" d="M114.174 62V12.0976H124.036V18.1936H124.482C124.921 17.217 125.555 16.2246 126.384 15.2165C127.23 14.1926 128.325 13.342 129.672 12.6646C131.034 11.9715 132.724 11.625 134.744 11.625C137.374 11.625 139.8 12.3181 142.023 13.7043C144.246 15.0747 146.023 17.1461 147.353 19.9184C148.684 22.6751 149.349 26.1326 149.349 30.2912C149.349 34.3394 148.7 37.7576 147.4 40.5457C146.117 43.3181 144.363 45.421 142.141 46.8544C139.933 48.2721 137.46 48.9809 134.72 48.9809C132.779 48.9809 131.128 48.658 129.766 48.0122C128.419 47.3664 127.316 46.5551 126.455 45.5785C125.594 44.5861 124.936 43.5859 124.482 42.5777H124.177V62H114.174ZM123.966 30.2439C123.966 32.4019 124.263 34.2843 124.858 35.891C125.453 37.4977 126.314 38.75 127.441 39.6479C128.568 40.53 129.938 40.971 131.55 40.971C133.178 40.971 134.556 40.5221 135.683 39.6242C136.81 38.7106 137.663 37.4505 138.243 35.8438C138.837 34.2213 139.135 32.3547 139.135 30.2439C139.135 28.1489 138.845 26.3059 138.266 24.7149C137.687 23.124 136.834 21.8796 135.707 20.9817C134.579 20.0838 133.194 19.6349 131.55 19.6349C129.922 19.6349 128.545 20.0681 127.417 20.9345C126.306 21.8008 125.453 23.0295 124.858 24.6204C124.263 26.2114 123.966 28.0859 123.966 30.2439Z" fill="#19A9FA"/>
<path d="M166.021 0V48.3902H156.018V0H166.021Z" fill="#19A9FA"/>
<path d="M197.164 32.9375V12.0976H207.167V48.3902H197.563V41.798H197.187C196.373 43.9245 195.019 45.6336 193.125 46.9253C191.247 48.217 188.953 48.8628 186.245 48.8628C183.834 48.8628 181.713 48.3115 179.881 47.2088C178.05 46.1062 176.617 44.5389 175.584 42.5069C174.567 40.4749 174.05 38.0412 174.035 35.2058V12.0976H184.038V33.4101C184.053 35.5523 184.625 37.2457 185.752 38.4901C186.879 39.7345 188.39 40.3567 190.284 40.3567C191.489 40.3567 192.616 40.0811 193.665 39.5297C194.714 38.9627 195.559 38.1278 196.201 37.0252C196.859 35.9225 197.18 34.56 197.164 32.9375Z" fill="#19A9FA"/>
<path d="M245.178 22.4466L236.02 23.0137C235.864 22.2261 235.527 21.5173 235.011 20.8872C234.494 20.2414 233.813 19.7294 232.968 19.3514C232.138 18.9576 231.144 18.7607 229.985 18.7607C228.436 18.7607 227.129 19.0915 226.064 19.753C225 20.3989 224.467 21.2652 224.467 22.3521C224.467 23.2185 224.812 23.951 225.5 24.5495C226.189 25.1481 227.371 25.6286 229.046 25.9909L235.574 27.314C239.081 28.0386 241.695 29.2043 243.417 30.811C245.139 32.4177 246 34.5285 246 37.1433C246 39.5219 245.303 41.609 243.91 43.4047C242.533 45.2005 240.638 46.6024 238.228 47.6105C235.832 48.6029 233.069 49.0991 229.939 49.0991C225.164 49.0991 221.36 48.0988 218.526 46.0983C215.709 44.0821 214.057 41.3412 213.572 37.8758L223.411 37.3559C223.708 38.8209 224.428 39.9393 225.571 40.7111C226.714 41.4672 228.177 41.8453 229.962 41.8453C231.715 41.8453 233.124 41.5066 234.189 40.8293C235.269 40.1362 235.817 39.2462 235.832 38.1593C235.817 37.2457 235.433 36.4975 234.682 35.9146C233.93 35.3161 232.772 34.8593 231.207 34.5442L224.96 33.2919C221.438 32.5831 218.816 31.3544 217.094 29.6059C215.388 27.8575 214.535 25.6286 214.535 22.9192C214.535 20.5879 215.161 18.5795 216.413 16.8941C217.681 15.2086 219.458 13.909 221.743 12.9954C224.045 12.0818 226.737 11.625 229.821 11.625C234.377 11.625 237.961 12.5938 240.576 14.5313C243.206 16.4688 244.74 19.1072 245.178 22.4466Z" fill="#19A9FA"/>
<path fill-rule="evenodd" clip-rule="evenodd" d="M17.0477 48.3902H0V0H17.1886C22.0258 0 26.1899 0.96875 29.6808 2.90625C33.1718 4.828 35.8565 7.59248 37.7351 11.1997C39.6293 14.8069 40.5764 19.123 40.5764 24.1479C40.5764 29.1885 39.6293 33.5203 37.7351 37.1433C35.8565 40.7663 33.1561 43.5465 29.6339 45.484C26.1273 47.4215 21.9319 48.3902 17.0477 48.3902ZM31.7397 33.2683L18.5148 10.6459L5.28995 33.2683L18.5148 28.3504L31.7397 33.2683Z" stroke="white"/>
<path fill-rule="evenodd" clip-rule="evenodd" d="M64.2165 49.0991C60.569 49.0991 57.4147 48.3194 54.7534 46.7599C52.1078 45.1847 50.0649 42.9952 48.6247 40.1913C47.1845 37.3717 46.4644 34.1032 46.4644 30.3857C46.4644 26.6367 47.1845 23.3603 48.6247 20.5564C50.0649 17.7368 52.1078 15.5473 54.7534 13.9878C57.4147 12.4126 60.569 11.625 64.2165 11.625C67.864 11.625 71.0106 12.4126 73.6562 13.9878C76.3174 15.5473 78.3682 17.7368 79.8084 20.5564C81.2486 23.3603 81.9687 26.6367 81.9687 30.3857C81.9687 34.1032 81.2486 37.3717 79.8084 40.1913C78.3682 42.9952 76.3174 45.1847 73.6562 46.7599C71.0106 48.3194 67.864 49.0991 64.2165 49.0991ZM64.2635 41.3018C65.9229 41.3018 67.3083 40.8293 68.4198 39.8841C69.5312 38.9233 70.3687 37.6159 70.9323 35.9619C71.5115 34.3079 71.8011 32.4256 71.8011 30.3148C71.8011 28.204 71.5115 26.3216 70.9323 24.6677C70.3687 23.0137 69.5312 21.7063 68.4198 20.7454C67.3083 19.7846 65.9229 19.3041 64.2635 19.3041C62.5885 19.3041 61.1796 19.7846 60.0368 20.7454C58.9097 21.7063 58.0565 23.0137 57.4773 24.6677C56.9137 26.3216 56.632 28.204 56.632 30.3148C56.632 32.4256 56.9137 34.3079 57.4773 35.9619C58.0565 37.6159 58.9097 38.9233 60.0368 39.8841C61.1796 40.8293 62.5885 41.3018 64.2635 41.3018Z" stroke="white"/>
<path d="M107.658 12.0976V19.6585H100.871V37.2378C100.871 38.1672 101.012 38.8918 101.294 39.4116C101.576 39.9157 101.967 40.2701 102.468 40.4748C102.985 40.6796 103.58 40.782 104.253 40.782C104.722 40.782 105.192 40.7426 105.662 40.6639C106.131 40.5694 106.491 40.4985 106.742 40.4512L108.315 47.9413C107.814 48.0988 107.11 48.28 106.202 48.4848C105.294 48.7053 104.19 48.8392 102.891 48.8864C100.48 48.9809 98.3667 48.658 96.5508 47.9177C94.7505 47.1773 93.3495 46.0274 92.3476 44.468C91.3457 42.9085 90.8526 40.9395 90.8682 38.561V19.6585H85.9371V12.0976H90.8682V3.40244H100.871V12.0976H107.658Z" stroke="white"/>
<path fill-rule="evenodd" clip-rule="evenodd" d="M114.174 62V12.0976H124.036V18.1936H124.482C124.921 17.217 125.555 16.2246 126.384 15.2165C127.23 14.1926 128.325 13.342 129.672 12.6646C131.034 11.9715 132.724 11.625 134.744 11.625C137.374 11.625 139.8 12.3181 142.023 13.7043C144.246 15.0747 146.023 17.1461 147.353 19.9184C148.684 22.6751 149.349 26.1326 149.349 30.2912C149.349 34.3394 148.7 37.7576 147.4 40.5457C146.117 43.3181 144.363 45.421 142.141 46.8544C139.933 48.2721 137.46 48.9809 134.72 48.9809C132.779 48.9809 131.128 48.658 129.766 48.0122C128.419 47.3664 127.316 46.5551 126.455 45.5785C125.594 44.5861 124.936 43.5859 124.482 42.5777H124.177V62H114.174ZM123.966 30.2439C123.966 32.4019 124.263 34.2843 124.858 35.891C125.453 37.4977 126.314 38.75 127.441 39.6479C128.568 40.53 129.938 40.971 131.55 40.971C133.178 40.971 134.556 40.5221 135.683 39.6242C136.81 38.7106 137.663 37.4505 138.243 35.8438C138.837 34.2213 139.135 32.3547 139.135 30.2439C139.135 28.1489 138.845 26.3059 138.266 24.7149C137.687 23.124 136.834 21.8796 135.707 20.9817C134.579 20.0838 133.194 19.6349 131.55 19.6349C129.922 19.6349 128.545 20.0681 127.417 20.9345C126.306 21.8008 125.453 23.0295 124.858 24.6204C124.263 26.2114 123.966 28.0859 123.966 30.2439Z" stroke="white"/>
<path d="M166.021 0V48.3902H156.018V0H166.021Z" stroke="white"/>
<path d="M197.164 32.9375V12.0976H207.167V48.3902H197.563V41.798H197.187C196.373 43.9245 195.019 45.6336 193.125 46.9253C191.247 48.217 188.953 48.8628 186.245 48.8628C183.834 48.8628 181.713 48.3115 179.881 47.2088C178.05 46.1062 176.617 44.5389 175.584 42.5069C174.567 40.4749 174.05 38.0412 174.035 35.2058V12.0976H184.038V33.4101C184.053 35.5523 184.625 37.2457 185.752 38.4901C186.879 39.7345 188.39 40.3567 190.284 40.3567C191.489 40.3567 192.616 40.0811 193.665 39.5297C194.714 38.9627 195.559 38.1278 196.201 37.0252C196.859 35.9225 197.18 34.56 197.164 32.9375Z" stroke="white"/>
<path d="M245.178 22.4466L236.02 23.0137C235.864 22.2261 235.527 21.5173 235.011 20.8872C234.494 20.2414 233.813 19.7294 232.968 19.3514C232.138 18.9576 231.144 18.7607 229.985 18.7607C228.436 18.7607 227.129 19.0915 226.064 19.753C225 20.3989 224.467 21.2652 224.467 22.3521C224.467 23.2185 224.812 23.951 225.5 24.5495C226.189 25.1481 227.371 25.6286 229.046 25.9909L235.574 27.314C239.081 28.0386 241.695 29.2043 243.417 30.811C245.139 32.4177 246 34.5285 246 37.1433C246 39.5219 245.303 41.609 243.91 43.4047C242.533 45.2005 240.638 46.6024 238.228 47.6105C235.832 48.6029 233.069 49.0991 229.939 49.0991C225.164 49.0991 221.36 48.0988 218.526 46.0983C215.709 44.0821 214.057 41.3412 213.572 37.8758L223.411 37.3559C223.708 38.8209 224.428 39.9393 225.571 40.7111C226.714 41.4672 228.177 41.8453 229.962 41.8453C231.715 41.8453 233.124 41.5066 234.189 40.8293C235.269 40.1362 235.817 39.2462 235.832 38.1593C235.817 37.2457 235.433 36.4975 234.682 35.9146C233.93 35.3161 232.772 34.8593 231.207 34.5442L224.96 33.2919C221.438 32.5831 218.816 31.3544 217.094 29.6059C215.388 27.8575 214.535 25.6286 214.535 22.9192C214.535 20.5879 215.161 18.5795 216.413 16.8941C217.681 15.2086 219.458 13.909 221.743 12.9954C224.045 12.0818 226.737 11.625 229.821 11.625C234.377 11.625 237.961 12.5938 240.576 14.5313C243.206 16.4688 244.74 19.1072 245.178 22.4466Z" stroke="white"/>
</svg>
