<svg width="71" height="18" viewBox="0 0 71 18" fill="none" xmlns="http://www.w3.org/2000/svg">
<path fill-rule="evenodd" clip-rule="evenodd" d="M4.92027 14.0488H0V0H4.96094C6.35705 0 7.55888 0.28125 8.56642 0.84375C9.57397 1.40168 10.3488 2.20427 10.891 3.25152C11.4377 4.29878 11.7111 5.55183 11.7111 7.01067C11.7111 8.47409 11.4377 9.73171 10.891 10.7835C10.3488 11.8354 9.56945 12.6425 8.55287 13.205C7.5408 13.7675 6.32994 14.0488 4.92027 14.0488ZM9.16065 9.65854L5.34371 3.09073L1.52678 9.65854L5.34371 8.23075L9.16065 9.65854Z" fill="white"/>
<path fill-rule="evenodd" clip-rule="evenodd" d="M18.534 14.2546C17.4813 14.2546 16.5709 14.0282 15.8028 13.5755C15.0392 13.1181 14.4496 12.4825 14.034 11.6684C13.6183 10.8498 13.4105 9.90092 13.4105 8.82165C13.4105 7.73323 13.6183 6.78201 14.034 5.96799C14.4496 5.14939 15.0392 4.51372 15.8028 4.06098C16.5709 3.60366 17.4813 3.375 18.534 3.375C19.5868 3.375 20.4949 3.60366 21.2585 4.06098C22.0266 4.51372 22.6185 5.14939 23.0341 5.96799C23.4498 6.78201 23.6576 7.73323 23.6576 8.82165C23.6576 9.90092 23.4498 10.8498 23.0341 11.6684C22.6185 12.4825 22.0266 13.1181 21.2585 13.5755C20.4949 14.0282 19.5868 14.2546 18.534 14.2546ZM18.5476 11.9909C19.0265 11.9909 19.4264 11.8537 19.7472 11.5793C20.068 11.3003 20.3097 10.9207 20.4723 10.4405C20.6395 9.96037 20.7231 9.41387 20.7231 8.80107C20.7231 8.18826 20.6395 7.64177 20.4723 7.16159C20.3097 6.6814 20.068 6.30183 19.7472 6.02287C19.4264 5.7439 19.0265 5.60442 18.5476 5.60442C18.0642 5.60442 17.6575 5.7439 17.3277 6.02287C17.0024 6.30183 16.7561 6.6814 16.589 7.16159C16.4263 7.64177 16.345 8.18826 16.345 8.80107C16.345 9.41387 16.4263 9.96037 16.589 10.4405C16.7561 10.9207 17.0024 11.3003 17.3277 11.5793C17.6575 11.8537 18.0642 11.9909 18.5476 11.9909Z" fill="white"/>
<path d="M31.0719 3.5122V5.70732H29.1133V10.811C29.1133 11.0808 29.154 11.2912 29.2353 11.4421C29.3166 11.5884 29.4296 11.6913 29.5742 11.7508C29.7233 11.8102 29.8949 11.8399 30.0892 11.8399C30.2248 11.8399 30.3603 11.8285 30.4959 11.8056C30.6314 11.7782 30.7353 11.7576 30.8076 11.7439L31.2617 13.9184C31.1171 13.9642 30.9138 14.0168 30.6517 14.0762C30.3897 14.1402 30.0712 14.1791 29.6961 14.1928C29.0003 14.2203 28.3904 14.1265 27.8663 13.9116C27.3467 13.6966 26.9423 13.3628 26.6532 12.9101C26.364 12.4573 26.2217 11.8857 26.2262 11.1951V5.70732H24.803V3.5122H26.2262V0.987805H29.1133V3.5122H31.0719Z" fill="white"/>
<path fill-rule="evenodd" clip-rule="evenodd" d="M32.9526 18V3.5122H35.799V5.28201H35.9278C36.0543 4.99848 36.2373 4.71037 36.4768 4.41768C36.7207 4.12043 37.037 3.87348 37.4256 3.67683C37.8187 3.47561 38.3066 3.375 38.8895 3.375C39.6485 3.375 40.3488 3.57622 40.9904 3.97866C41.632 4.37653 42.1448 4.9779 42.5288 5.78277C42.9129 6.58308 43.1049 7.58689 43.1049 8.79421C43.1049 9.96951 42.9174 10.9619 42.5424 11.7713C42.1719 12.5762 41.6659 13.1867 41.0243 13.6029C40.3872 14.0145 39.6734 14.2203 38.8827 14.2203C38.3224 14.2203 37.8458 14.1265 37.4527 13.939C37.0641 13.7515 36.7456 13.516 36.4971 13.2325C36.2486 12.9444 36.0588 12.654 35.9278 12.3613H35.8397V18H32.9526ZM35.7787 8.78049C35.7787 9.40701 35.8646 9.95351 36.0362 10.42C36.2079 10.8864 36.4564 11.25 36.7817 11.5107C37.107 11.7668 37.5024 11.8948 37.9678 11.8948C38.4376 11.8948 38.8352 11.7645 39.1605 11.5038C39.4859 11.2386 39.7321 10.8727 39.8993 10.4063C40.071 9.93521 40.1568 9.39329 40.1568 8.78049C40.1568 8.17226 40.0732 7.6372 39.906 7.17531C39.7389 6.71342 39.4926 6.35214 39.1673 6.09146C38.842 5.83079 38.4422 5.70046 37.9678 5.70046C37.4979 5.70046 37.1003 5.82622 36.775 6.07774C36.4542 6.32927 36.2079 6.68598 36.0362 7.14787C35.8646 7.60976 35.7787 8.15396 35.7787 8.78049Z" fill="white"/>
<path d="M47.9167 0V14.0488H45.0296V0H47.9167Z" fill="white"/>
<path d="M56.905 9.5625V3.5122H59.7921V14.0488H57.0203V12.1349H56.9118C56.6769 12.7523 56.2861 13.2485 55.7394 13.6235C55.1972 13.9985 54.5353 14.186 53.7536 14.186C53.0578 14.186 52.4456 14.0259 51.917 13.7058C51.3884 13.3857 50.975 12.9306 50.6768 12.3407C50.3831 11.7508 50.234 11.0442 50.2295 10.221V3.5122H53.1166V9.6997C53.1211 10.3216 53.286 10.8133 53.6113 11.1745C53.9366 11.5358 54.3726 11.7165 54.9193 11.7165C55.2672 11.7165 55.5925 11.6364 55.8952 11.4764C56.198 11.3117 56.4419 11.0694 56.6272 10.7492C56.8169 10.4291 56.9096 10.0335 56.905 9.5625Z" fill="white"/>
<path d="M70.7628 6.51677L68.1197 6.6814C68.0745 6.45274 67.9773 6.24695 67.8283 6.06402C67.6792 5.87652 67.4826 5.7279 67.2386 5.61814C66.9992 5.50381 66.7123 5.44665 66.3779 5.44665C65.9306 5.44665 65.5534 5.54268 65.2461 5.73476C64.9389 5.92226 64.7853 6.17378 64.7853 6.48933C64.7853 6.74085 64.8847 6.95351 65.0835 7.12729C65.2823 7.30107 65.6234 7.44055 66.1068 7.54573L67.9909 7.92988C69.003 8.14024 69.7575 8.47866 70.2545 8.94512C70.7515 9.41159 71 10.0244 71 10.7835C71 11.4741 70.7989 12.08 70.3968 12.6014C69.9992 13.1227 69.4525 13.5297 68.7567 13.8224C68.0655 14.1105 67.268 14.2546 66.3644 14.2546C64.9863 14.2546 63.8884 13.9642 63.0706 13.3834C62.2574 12.798 61.7807 12.0023 61.6406 10.9962L64.4803 10.8453C64.5661 11.2706 64.774 11.5953 65.1038 11.8194C65.4336 12.0389 65.8561 12.1486 66.3711 12.1486C66.8772 12.1486 67.2838 12.0503 67.591 11.8537C67.9028 11.6524 68.0609 11.3941 68.0655 11.0785C68.0609 10.8133 67.9502 10.596 67.7334 10.4268C67.5165 10.253 67.1822 10.1204 66.7303 10.029L64.9276 9.6654C63.911 9.4596 63.1542 9.1029 62.6572 8.59528C62.1647 8.08765 61.9185 7.44055 61.9185 6.65396C61.9185 5.97713 62.0992 5.39405 62.4607 4.90473C62.8267 4.4154 63.3395 4.03811 63.9991 3.77287C64.6633 3.50762 65.4404 3.375 66.3305 3.375C67.6453 3.375 68.6799 3.65625 69.4345 4.21875C70.1935 4.78125 70.6363 5.54726 70.7628 6.51677Z" fill="white"/>
<path fill-rule="evenodd" clip-rule="evenodd" d="M4.92027 14.0488H0V0H4.96094C6.35705 0 7.55888 0.28125 8.56642 0.84375C9.57397 1.40168 10.3488 2.20427 10.891 3.25152C11.4377 4.29878 11.7111 5.55183 11.7111 7.01067C11.7111 8.47409 11.4377 9.73171 10.891 10.7835C10.3488 11.8354 9.56945 12.6425 8.55287 13.205C7.5408 13.7675 6.32994 14.0488 4.92027 14.0488ZM9.16065 9.65854L5.34371 3.09073L1.52678 9.65854L5.34371 8.23075L9.16065 9.65854Z" stroke="white"/>
<path fill-rule="evenodd" clip-rule="evenodd" d="M18.534 14.2546C17.4813 14.2546 16.5709 14.0282 15.8028 13.5755C15.0392 13.1181 14.4496 12.4825 14.034 11.6684C13.6183 10.8498 13.4105 9.90092 13.4105 8.82165C13.4105 7.73323 13.6183 6.78201 14.034 5.96799C14.4496 5.14939 15.0392 4.51372 15.8028 4.06098C16.5709 3.60366 17.4813 3.375 18.534 3.375C19.5868 3.375 20.4949 3.60366 21.2585 4.06098C22.0266 4.51372 22.6185 5.14939 23.0341 5.96799C23.4498 6.78201 23.6576 7.73323 23.6576 8.82165C23.6576 9.90092 23.4498 10.8498 23.0341 11.6684C22.6185 12.4825 22.0266 13.1181 21.2585 13.5755C20.4949 14.0282 19.5868 14.2546 18.534 14.2546ZM18.5476 11.9909C19.0265 11.9909 19.4264 11.8537 19.7472 11.5793C20.068 11.3003 20.3097 10.9207 20.4723 10.4405C20.6395 9.96037 20.7231 9.41387 20.7231 8.80107C20.7231 8.18826 20.6395 7.64177 20.4723 7.16159C20.3097 6.6814 20.068 6.30183 19.7472 6.02287C19.4264 5.7439 19.0265 5.60442 18.5476 5.60442C18.0642 5.60442 17.6575 5.7439 17.3277 6.02287C17.0024 6.30183 16.7561 6.6814 16.589 7.16159C16.4263 7.64177 16.345 8.18826 16.345 8.80107C16.345 9.41387 16.4263 9.96037 16.589 10.4405C16.7561 10.9207 17.0024 11.3003 17.3277 11.5793C17.6575 11.8537 18.0642 11.9909 18.5476 11.9909Z" stroke="white"/>
<path d="M31.0719 3.5122V5.70732H29.1133V10.811C29.1133 11.0808 29.154 11.2912 29.2353 11.4421C29.3166 11.5884 29.4296 11.6913 29.5742 11.7508C29.7233 11.8102 29.8949 11.8399 30.0892 11.8399C30.2248 11.8399 30.3603 11.8285 30.4959 11.8056C30.6314 11.7782 30.7353 11.7576 30.8076 11.7439L31.2617 13.9184C31.1171 13.9642 30.9138 14.0168 30.6517 14.0762C30.3897 14.1402 30.0712 14.1791 29.6961 14.1928C29.0003 14.2203 28.3904 14.1265 27.8663 13.9116C27.3467 13.6966 26.9423 13.3628 26.6532 12.9101C26.364 12.4573 26.2217 11.8857 26.2262 11.1951V5.70732H24.803V3.5122H26.2262V0.987805H29.1133V3.5122H31.0719Z" stroke="white"/>
<path fill-rule="evenodd" clip-rule="evenodd" d="M32.9526 18V3.5122H35.799V5.28201H35.9278C36.0543 4.99848 36.2373 4.71037 36.4768 4.41768C36.7207 4.12043 37.037 3.87348 37.4256 3.67683C37.8187 3.47561 38.3066 3.375 38.8895 3.375C39.6485 3.375 40.3488 3.57622 40.9904 3.97866C41.632 4.37653 42.1448 4.9779 42.5288 5.78277C42.9129 6.58308 43.1049 7.58689 43.1049 8.79421C43.1049 9.96951 42.9174 10.9619 42.5424 11.7713C42.1719 12.5762 41.6659 13.1867 41.0243 13.6029C40.3872 14.0145 39.6734 14.2203 38.8827 14.2203C38.3224 14.2203 37.8458 14.1265 37.4527 13.939C37.0641 13.7515 36.7456 13.516 36.4971 13.2325C36.2486 12.9444 36.0588 12.654 35.9278 12.3613H35.8397V18H32.9526ZM35.7787 8.78049C35.7787 9.40701 35.8646 9.95351 36.0362 10.42C36.2079 10.8864 36.4564 11.25 36.7817 11.5107C37.107 11.7668 37.5024 11.8948 37.9678 11.8948C38.4376 11.8948 38.8352 11.7645 39.1605 11.5038C39.4859 11.2386 39.7321 10.8727 39.8993 10.4063C40.071 9.93521 40.1568 9.39329 40.1568 8.78049C40.1568 8.17226 40.0732 7.6372 39.906 7.17531C39.7389 6.71342 39.4926 6.35214 39.1673 6.09146C38.842 5.83079 38.4422 5.70046 37.9678 5.70046C37.4979 5.70046 37.1003 5.82622 36.775 6.07774C36.4542 6.32927 36.2079 6.68598 36.0362 7.14787C35.8646 7.60976 35.7787 8.15396 35.7787 8.78049Z" stroke="white"/>
<path d="M47.9167 0V14.0488H45.0296V0H47.9167Z" stroke="white"/>
<path d="M56.905 9.5625V3.5122H59.7921V14.0488H57.0203V12.1349H56.9118C56.6769 12.7523 56.2861 13.2485 55.7394 13.6235C55.1972 13.9985 54.5353 14.186 53.7536 14.186C53.0578 14.186 52.4456 14.0259 51.917 13.7058C51.3884 13.3857 50.975 12.9306 50.6768 12.3407C50.3831 11.7508 50.234 11.0442 50.2295 10.221V3.5122H53.1166V9.6997C53.1211 10.3216 53.286 10.8133 53.6113 11.1745C53.9366 11.5358 54.3726 11.7165 54.9193 11.7165C55.2672 11.7165 55.5925 11.6364 55.8952 11.4764C56.198 11.3117 56.4419 11.0694 56.6272 10.7492C56.8169 10.4291 56.9096 10.0335 56.905 9.5625Z" stroke="white"/>
<path d="M70.7628 6.51677L68.1197 6.6814C68.0745 6.45274 67.9773 6.24695 67.8283 6.06402C67.6792 5.87652 67.4826 5.7279 67.2386 5.61814C66.9992 5.50381 66.7123 5.44665 66.3779 5.44665C65.9306 5.44665 65.5534 5.54268 65.2461 5.73476C64.9389 5.92226 64.7853 6.17378 64.7853 6.48933C64.7853 6.74085 64.8847 6.95351 65.0835 7.12729C65.2823 7.30107 65.6234 7.44055 66.1068 7.54573L67.9909 7.92988C69.003 8.14024 69.7575 8.47866 70.2545 8.94512C70.7515 9.41159 71 10.0244 71 10.7835C71 11.4741 70.7989 12.08 70.3968 12.6014C69.9992 13.1227 69.4525 13.5297 68.7567 13.8224C68.0655 14.1105 67.268 14.2546 66.3644 14.2546C64.9863 14.2546 63.8884 13.9642 63.0706 13.3834C62.2574 12.798 61.7807 12.0023 61.6406 10.9962L64.4803 10.8453C64.5661 11.2706 64.774 11.5953 65.1038 11.8194C65.4336 12.0389 65.8561 12.1486 66.3711 12.1486C66.8772 12.1486 67.2838 12.0503 67.591 11.8537C67.9028 11.6524 68.0609 11.3941 68.0655 11.0785C68.0609 10.8133 67.9502 10.596 67.7334 10.4268C67.5165 10.253 67.1822 10.1204 66.7303 10.029L64.9276 9.6654C63.911 9.4596 63.1542 9.1029 62.6572 8.59528C62.1647 8.08765 61.9185 7.44055 61.9185 6.65396C61.9185 5.97713 62.0992 5.39405 62.4607 4.90473C62.8267 4.4154 63.3395 4.03811 63.9991 3.77287C64.6633 3.50762 65.4404 3.375 66.3305 3.375C67.6453 3.375 68.6799 3.65625 69.4345 4.21875C70.1935 4.78125 70.6363 5.54726 70.7628 6.51677Z" stroke="white"/>
</svg>
