<svg width="20" height="20" viewBox="0 0 20 20" fill="none" xmlns="http://www.w3.org/2000/svg">
<path d="M9.9854 2.48513L15.0697 7.37907C15.4772 7.77131 15.7074 8.31255 15.7074 8.87815V16.4077C15.7074 17.0397 15.195 17.5521 14.563 17.5521C13.931 17.5521 13.4186 17.0397 13.4186 16.4077V12.2891C13.4186 11.1399 12.487 10.2083 11.3379 10.2083H8.63292C7.48376 10.2083 6.55219 11.1399 6.55219 12.2891V16.4077C6.55219 17.0397 6.03982 17.5521 5.40778 17.5521C4.77575 17.5521 4.26338 17.0397 4.26338 16.4077V8.87816C4.26338 8.31255 4.49364 7.77131 4.90114 7.37906L9.9854 2.48513ZM11.4284 0.581633C10.6227 -0.19389 9.3481 -0.193889 8.54242 0.581634L0.304266 8.51141C-0.335366 9.1271 0.100459 10.2083 0.988265 10.2083C1.53299 10.2083 1.97458 10.6499 1.97458 11.1946V17.9193C1.97458 19.0684 2.90615 20 4.05531 20H6.76026C7.90942 20 8.84099 19.0684 8.84099 17.9193V13.8006C8.84099 13.1686 9.35336 12.6562 9.9854 12.6562C10.6174 12.6562 11.1298 13.1686 11.1298 13.8006V17.9193C11.1298 19.0684 12.0614 20 13.2105 20H15.9155C17.0646 20 17.9962 19.0684 17.9962 17.9193V11.1946C17.9962 10.6499 18.4378 10.2083 18.9825 10.2083C19.8703 10.2083 20.3062 9.1271 19.6665 8.51141L11.4284 0.581633Z" fill="#BBC6D8"/>
</svg>
