<svg width="20" height="20" viewBox="0 0 20 20" fill="none" xmlns="http://www.w3.org/2000/svg">
<path d="M17.7778 0H2.22222C1 0 0.0111111 1 0.0111111 2.22222L0 17.7778C0 19 1 20 2.22222 20H17.7778C19 20 20 19 20 17.7778V2.22222C20 1 19 0 17.7778 0ZM17.7778 15.7778C17.7778 16.8823 16.8823 17.7778 15.7778 17.7778H4.22222C3.11765 17.7778 2.22222 16.8823 2.22222 15.7778V4.22222C2.22222 3.11765 3.11765 2.22222 4.22222 2.22222H15.7778C16.8823 2.22222 17.7778 3.11765 17.7778 4.22222V15.7778ZM8.33333 13.8889C8.33333 14.8094 9.07953 15.5556 10 15.5556C10.9205 15.5556 11.6667 14.8094 11.6667 13.8889V13.6111C11.6667 12.5372 12.5372 11.6667 13.6111 11.6667H13.8889C14.8094 11.6667 15.5556 10.9205 15.5556 10C15.5556 9.07953 14.8094 8.33333 13.8889 8.33333H13.6111C12.5372 8.33333 11.6667 7.46278 11.6667 6.38889V6.11111C11.6667 5.19064 10.9205 4.44444 10 4.44444C9.07953 4.44444 8.33333 5.19064 8.33333 6.11111V6.38889C8.33333 7.46277 7.46278 8.33333 6.38889 8.33333H6.11111C5.19064 8.33333 4.44444 9.07953 4.44444 10C4.44444 10.9205 5.19064 11.6667 6.11111 11.6667H6.38889C7.46277 11.6667 8.33333 12.5372 8.33333 13.6111V13.8889Z" fill="#BBC6D8"/>
</svg>
