<svg width="15" height="18" viewBox="0 0 15 18" fill="none" xmlns="http://www.w3.org/2000/svg">
<path d="M8.30987 1.66559C7.86434 1.61925 7.5 1.26061 7.5 0.812678C7.5 0.0961103 6.63877 -0.26841 6.12434 0.230425L4.88945 1.42789C4.2659 2.03255 4.2659 3.03309 4.88945 3.63774L6.12434 4.83521C6.63877 5.33405 7.5 4.96952 7.5 4.25296C7.5 3.80503 7.86511 3.43592 8.30871 3.49804C11.0297 3.87908 13.125 6.15361 13.125 8.89645C13.125 9.55386 13.0048 10.188 12.7818 10.7721C12.6261 11.1797 12.6867 11.6533 13 11.9571C13.4343 12.3782 14.1495 12.2988 14.395 11.7458C14.7827 10.8725 15 9.90965 15 8.89645C15 5.14362 12.0724 2.05689 8.30987 1.66559ZM7.5 13.54C7.5 13.9879 7.13489 14.357 6.69129 14.2949C3.97034 13.9138 1.875 11.6393 1.875 8.89645C1.875 8.23904 1.99515 7.60493 2.21825 7.02082C2.37393 6.61321 2.31325 6.13961 2.00001 5.83586C1.56568 5.41469 0.850469 5.49411 0.605012 6.04707C0.217321 6.92045 0 7.88326 0 8.89645C0 12.6493 2.92762 15.736 6.69013 16.1273C7.13566 16.1737 7.5 16.5323 7.5 16.9802C7.5 17.6968 8.36123 18.0613 8.87566 17.5625L10.1105 16.365C10.7341 15.7604 10.7341 14.7598 10.1105 14.1552L8.87566 12.9577C8.36123 12.4589 7.5 12.8234 7.5 13.54Z" fill="#BBC6D8"/>
</svg>
